<svg xmlns="http://www.w3.org/2000/svg" data-name="Layer 1" viewBox="0 0 100 125" x="0px" y="0px"><title>person_moves</title><path d="M54.2,73a23.92,23.92,0,0,1-8.4,0v7.86H39.53L50,99,60.47,80.87H54.2Z"/><path d="M45.8,25.47a23.92,23.92,0,0,1,8.4,0V19.13h6.27L50,1,39.53,19.13H45.8Z"/><path d="M26.11,45.8h-7V39.53L1,50,19.13,60.47V54.2h7.24A24.15,24.15,0,0,1,26.11,45.8Z"/><path d="M99,50,80.87,39.53V45.8h-7a24.15,24.15,0,0,1-.26,8.4h7.24v6.27Z"/><circle cx="49.95" cy="41.03" r="8.79"/><path d="M68.92,64.15H31.08V62.72a11.2,11.2,0,0,1,11.2-11.2H57.72a11.2,11.2,0,0,1,11.2,11.19Z"/><text x="0" y="115" fill="#000000" font-size="5px" font-weight="bold" font-family="'Helvetica Neue', Helvetica, Arial-Unicode, Arial, Sans-serif"></text><text x="0" y="120" fill="#000000" font-size="5px" font-weight="bold" font-family="'Helvetica Neue', Helvetica, Arial-Unicode, Arial, Sans-serif"></text></svg>