<svg xmlns="http://www.w3.org/2000/svg" xmlns:xlink="http://www.w3.org/1999/xlink" version="1.1" x="0px" y="0px" viewBox="0 0 100 125" enable-background="new 0 0 100 100" xml:space="preserve"><g><circle cx="19.176" cy="39.469" r="7.664"/><circle cx="80.992" cy="39.468" r="7.664"/><path d="M29.001,54.253c-0.279-1.064-1.408-1.935-2.508-1.935H11.858c-1.1,0-2.227,0.871-2.503,1.936l-2.9,11.156   c-0.277,1.064,0.221,2.47,1.106,3.122l2.341,1.725c0.885,0.652,1.755,2.074,1.933,3.16l2.96,18.067   c0.178,1.086,0.821,1.974,1.428,1.974c0.608,0,1.105-0.9,1.105-2V62.37c0-1.1,0.9-2,2-2h9.278c1.1,0,1.771-0.87,1.492-1.935   L29.001,54.253z"/><path d="M90.817,54.253c-0.279-1.064-1.408-1.935-2.508-1.935H73.675c-1.1,0-2.227,0.871-2.504,1.936l-1.087,4.181   c-0.277,1.064,0.396,1.936,1.496,1.936h9.594c1.1,0,2,0.9,2,2v29.088c0,1.1,0.659,2,1.464,2s1.597-0.891,1.759-1.979l2.717-18.206   c0.162-1.088,0.979-2.563,1.817-3.276l1.764-1.503c0.838-0.714,1.294-2.168,1.015-3.232L90.817,54.253z"/><path d="M62.31,75.9c0,1.1-0.9,2-2,2H40.042c-1.1,0-2-0.9-2-2v-11.56c0-1.1-0.9-2-2-2H21.176c-1.1,0-2,0.9-2,2v27.117   c0,1.1,0.9,2,2,2h58c1.1,0,2-0.9,2-2V64.341c0-1.1-0.9-2-2-2H64.31c-1.1,0-2,0.9-2,2V75.9z M40.042,89.496c-1.1,0-2-0.9-2-2v-3.635   c0-1.1,0.9-2,2-2H60.31c1.1,0,2,0.9,2,2v3.635c0,1.1-0.9,2-2,2H40.042z"/><path d="M19.909,26.879H31.38v8.417l8.418-8.417h3.053c2.967,0,5.373-2.405,5.373-5.373v-9.134C48.224,9.405,45.818,7,42.851,7   H19.909c-2.967,0-5.373,2.405-5.373,5.373v9.134C14.537,24.474,16.942,26.879,19.909,26.879z"/><path d="M57.388,26.879h3.054l8.416,8.417v-8.417h11.472c2.968,0,5.373-2.405,5.373-5.373v-9.134C85.702,9.405,83.297,7,80.329,7   H57.388c-2.967,0-5.372,2.405-5.372,5.373v9.134C52.016,24.474,54.421,26.879,57.388,26.879z"/></g><text x="0" y="115" fill="#000000" font-size="5px" font-weight="bold" font-family="'Helvetica Neue', Helvetica, Arial-Unicode, Arial, Sans-serif"></text><text x="0" y="120" fill="#000000" font-size="5px" font-weight="bold" font-family="'Helvetica Neue', Helvetica, Arial-Unicode, Arial, Sans-serif"></text></svg>
