<svg xmlns="http://www.w3.org/2000/svg" xmlns:xlink="http://www.w3.org/1999/xlink" viewBox="0 0 58 73.75" version="1.1" x="0px" y="0px"><title>106 -Web Nodes- (seo, marketing, web, business, internet)</title><desc>Created with Sketch.</desc><g stroke="none" stroke-width="1" fill="none" fill-rule="evenodd"><g transform="translate(-722.000000, -1582.000000)" fill="#000000"><g transform="translate(722.000000, 1581.000000)"><path d="M53,37.9951 C51.933,37.9951 50.948,38.3371 50.135,38.9101 L40.959,33.4041 C40.973,33.2681 41,33.1351 41,32.9951 C41,31.1361 39.721,29.5841 38,29.1371 L38,19.8941 C40.279,19.4291 42,17.4091 42,14.9951 C42,14.2741 41.84,13.5911 41.563,12.9711 L46.909,8.3891 C47.519,8.7661 48.231,8.9951 49,8.9951 C51.206,8.9951 53,7.2011 53,4.9951 C53,2.7891 51.206,0.9951 49,0.9951 C46.794,0.9951 45,2.7891 45,4.9951 C45,5.7051 45.201,6.3631 45.527,6.9411 L40.391,11.3431 C39.498,10.5141 38.312,9.9951 37,9.9951 C35.453,9.9951 34.086,10.7161 33.168,11.8231 L27.473,6.9411 C27.799,6.3631 28,5.7051 28,4.9951 C28,2.7891 26.206,0.9951 24,0.9951 C21.794,0.9951 20,2.7891 20,4.9951 C20,7.2011 21.794,8.9951 24,8.9951 C24.769,8.9951 25.481,8.7661 26.091,8.3891 L32.212,13.6361 C32.088,14.0711 32,14.5211 32,14.9951 C32,17.4091 33.721,19.4291 36,19.8941 L36,29.1371 C35.102,29.3701 34.329,29.9031 33.792,30.6291 L24.921,28.2101 C24.54,25.8271 22.488,23.9951 20,23.9951 C18.996,23.9951 18.064,24.2991 17.279,24.8111 L9.15,15.7781 C9.686,14.9821 10,14.0251 10,12.9951 C10,10.2381 7.757,7.9951 5,7.9951 C2.243,7.9951 0,10.2381 0,12.9951 C0,15.7521 2.243,17.9951 5,17.9951 C6.004,17.9951 6.936,17.6911 7.721,17.1791 L15.85,26.2121 C15.314,27.0081 15,27.9651 15,28.9951 C15,29.1201 15.028,29.2361 15.037,29.3591 L7.673,33.0401 C6.963,32.3981 6.031,31.9951 5,31.9951 C2.794,31.9951 1,33.7891 1,35.9951 C1,38.2011 2.794,39.9951 5,39.9951 C7.206,39.9951 9,38.2011 9,35.9951 C9,35.5491 8.91,35.1271 8.774,34.7261 L15.597,31.3141 C16.287,32.6171 17.515,33.5911 19,33.8941 L19,42.1371 C17.279,42.5841 16,44.1361 16,45.9951 C16,46.4641 16.096,46.9081 16.245,47.3261 L10.091,52.6011 C9.481,52.2241 8.769,51.9951 8,51.9951 C5.794,51.9951 4,53.7891 4,55.9951 C4,58.2011 5.794,59.9951 8,59.9951 C10.206,59.9951 12,58.2011 12,55.9951 C12,55.2851 11.799,54.6271 11.473,54.0491 L17.375,48.9901 C18.08,49.6081 18.991,49.9951 20,49.9951 C21.009,49.9951 21.92,49.6081 22.625,48.9901 L28.527,54.0491 C28.201,54.6271 28,55.2851 28,55.9951 C28,58.2011 29.794,59.9951 32,59.9951 C34.206,59.9951 36,58.2011 36,55.9951 C36,53.7891 34.206,51.9951 32,51.9951 C31.231,51.9951 30.519,52.2241 29.909,52.6011 L23.755,47.3261 C23.904,46.9081 24,46.4641 24,45.9951 C24,44.1361 22.721,42.5841 21,42.1371 L21,33.8941 C22.866,33.5141 24.34,32.0831 24.819,30.2551 L33.05,32.5001 C33.03,32.6641 33,32.8251 33,32.9951 C33,35.2011 34.794,36.9951 37,36.9951 C38.341,36.9951 39.523,36.3271 40.249,35.3111 L48.743,40.4071 C48.281,41.1651 48,42.0451 48,42.9951 C48,45.7521 50.243,47.9951 53,47.9951 C55.757,47.9951 58,45.7521 58,42.9951 C58,40.2381 55.757,37.9951 53,37.9951"/></g></g></g><text x="0" y="74" fill="#000000" font-size="5px" font-weight="bold" font-family="'Helvetica Neue', Helvetica, Arial-Unicode, Arial, Sans-serif"></text><text x="0" y="79" fill="#000000" font-size="5px" font-weight="bold" font-family="'Helvetica Neue', Helvetica, Arial-Unicode, Arial, Sans-serif"></text></svg>
